<svg width="77" height="92" viewBox="0 0 77 92" fill="none" xmlns="http://www.w3.org/2000/svg">
<path fill-rule="evenodd" clip-rule="evenodd" d="M40.0513 17.5571C37.6285 17.5058 35.4956 17.7995 33.9054 18.1291C32.0996 18.5033 30.9569 20.1545 30.9569 21.9986V87.3559C30.9569 89.1501 32.0369 90.7722 33.7768 91.2109C35.4729 91.6385 37.79 92.0481 40.3215 91.9954C42.6688 91.9466 44.7779 91.5733 46.3546 91.1911C48.1237 90.7623 49.2358 89.1244 49.2358 87.3042V59.3055C49.2358 58.7643 49.0172 58.2461 48.6295 57.8685L45.4942 54.8144C45.3944 54.7172 45.4073 54.5532 45.521 54.4728L48.3885 52.4437C48.9199 52.0677 49.2358 51.4571 49.2358 50.8061V22.2407C49.2358 20.2787 47.9503 18.55 46.0212 18.1919C44.4049 17.892 42.3109 17.605 40.0513 17.5571ZM39.051 27.8547C39.6396 27.3853 40.4715 27.3744 41.0722 27.8282L41.0938 27.8445C41.5147 28.1626 41.7622 28.6596 41.7622 29.1872V50.1784C41.7622 51.0984 41.0163 51.8441 40.0963 51.8441C39.1763 51.8441 38.4305 51.0984 38.4305 50.1784V29.1431C38.4305 28.6416 38.6589 28.1674 39.051 27.8547ZM41.7622 60.1248C41.7622 59.2049 41.0163 58.4591 40.0963 58.4591C39.1763 58.4591 38.4305 59.2049 38.4305 60.1248V80.989C38.4305 81.5471 38.6983 82.0714 39.1504 82.3987L39.2602 82.4781C39.8754 82.9234 40.7207 82.867 41.2713 82.344C41.5847 82.0462 41.7622 81.6329 41.7622 81.2006V60.1248Z" fill="url(#paint0_linear_0_1)"/>
<path d="M26.7217 30.9422V20.9067C26.7217 20.4573 26.2884 20.1359 25.8647 20.2856C16.1395 23.7209 3.95046 35.7452 2.79872 51.7308C1.56066 68.9146 10.8468 82.7455 25.802 89.2704C26.2379 89.4606 26.7217 89.1382 26.7217 88.6626V50.9786C26.7217 50.6093 26.4223 50.3099 26.0529 50.3099H17.5397C17.1704 50.3099 16.871 50.6093 16.871 50.9786V67.6343C16.871 67.8553 16.5814 67.9312 16.4639 67.7441C6.45332 51.8024 17.5103 37.7564 25.6855 32.7389C26.3155 32.3522 26.7217 31.6813 26.7217 30.9422Z" fill="url(#paint1_linear_0_1)"/>
<path fill-rule="evenodd" clip-rule="evenodd" d="M53.4712 21.1966C53.4712 20.6995 53.9969 20.3778 54.4396 20.6039C62.3627 24.6515 64.8856 27.0916 68.8522 31.594C74.7355 38.2718 76.4832 46.8606 76.985 50.8105C77.067 51.4558 76.8074 52.0917 76.315 52.5166L73.5586 54.8952C73.4535 54.9859 73.456 55.1496 73.5639 55.2371L76.2114 57.3833C76.7622 57.8298 77.0393 58.5345 76.9207 59.2336C75.2329 69.1843 71.2367 75.7207 68.644 78.536C68.2611 78.9518 67.6251 78.6656 67.6251 78.1004V62.9081C67.6251 62.7162 67.5427 62.5335 67.3988 62.4066L63.6674 59.1155C63.5235 58.9885 63.2971 59.0907 63.2971 59.2827V82.6598C63.2971 83.279 63.0112 83.866 62.5174 84.2396C59.6598 86.4021 57.7324 87.4941 54.4128 89.0112C53.972 89.2127 53.4712 88.8895 53.4712 88.4049V21.1966ZM63.2971 50.176C63.2971 50.3671 63.5218 50.4696 63.6661 50.3444L66.1434 48.1946C66.3346 48.0287 66.4135 47.7699 66.3194 47.5348C66.0255 46.8003 65.2655 45.2333 63.7076 42.632C63.5919 42.4388 63.2971 42.5211 63.2971 42.7463V50.176Z" fill="url(#paint2_linear_0_1)"/>
<path fill-rule="evenodd" clip-rule="evenodd" d="M12.4059 7.00251C11.7529 5.65723 12.3121 4.03634 13.6549 3.38215C14.9977 2.72796 16.6156 3.2882 17.2686 4.63348C17.7064 5.53543 17.5993 6.56126 17.0765 7.33659C17.2009 7.44605 17.3487 7.57338 17.5166 7.71351C18.0794 8.18298 18.862 8.79023 19.7482 9.34917C20.6384 9.91071 21.6079 10.4073 22.5462 10.6761C23.488 10.9459 24.3311 10.9676 25.0263 10.6741C25.562 10.4479 26.0804 10.0064 26.5656 9.41546C27.0471 8.82903 27.4657 8.1326 27.8119 7.45184C28.1569 6.77342 28.422 6.12657 28.601 5.64846C28.6147 5.61195 28.6278 5.57646 28.6404 5.54205C28.0699 5.29353 27.5816 4.84755 27.2882 4.24305C26.6352 2.89776 27.1944 1.27687 28.5372 0.622682C29.88 -0.0315088 31.4979 0.52873 32.1509 1.87401C32.7527 3.11374 32.325 4.58752 31.2033 5.32313L33.927 18.9009C34.2357 20.4398 33.4676 21.9932 32.0587 22.6797L17.1846 29.9261C15.7739 30.6133 14.0778 30.2576 13.0608 29.0611L4.09771 18.5167C2.84624 18.9013 1.46705 18.3267 0.876655 17.1104C0.22367 15.7651 0.782877 14.1442 2.12568 13.49C3.46848 12.8358 5.08638 13.3961 5.73937 14.7413C6.02186 15.3233 6.07748 15.9569 5.94093 16.5415L5.99021 16.5572C6.47609 16.7114 7.14767 16.9019 7.89335 17.049C8.6416 17.1965 9.44684 17.2968 10.2046 17.2795C10.9682 17.262 11.6349 17.1261 12.1434 16.8436C12.803 16.4771 13.3066 15.7992 13.6764 14.8905C14.0448 13.9851 14.2535 12.9145 14.3623 11.8662C14.4707 10.8228 14.4772 9.83103 14.4562 9.09768C14.4496 8.869 14.4403 8.66632 14.4308 8.49605C13.5823 8.36602 12.8097 7.83434 12.4059 7.00251ZM14.2567 4.62201C13.5974 4.94321 13.3229 5.73906 13.6435 6.39959C13.9641 7.06012 14.7585 7.33519 15.4178 7.01399C16.0771 6.69278 16.3517 5.89693 16.031 5.2364C15.7104 4.57588 14.916 4.3008 14.2567 4.62201ZM16.0196 8.25384C15.9474 8.28903 15.8743 8.3207 15.8007 8.34893C15.8123 8.54457 15.8238 8.78406 15.8317 9.05797C15.854 9.83092 15.8476 10.8869 15.7311 12.0089C15.6151 13.1261 15.3869 14.3388 14.9507 15.4109C14.5158 16.4796 13.8471 17.4735 12.8108 18.0493C12.0346 18.4806 11.1207 18.6376 10.236 18.6578C9.34542 18.6781 8.43469 18.5609 7.62757 18.4017C6.81787 18.242 6.09466 18.0366 5.5746 17.8715C5.469 17.838 5.37154 17.8061 5.28317 17.7764L5.27941 17.7805L13.4741 27.4209L32.3844 18.2081L29.9365 6.00556C29.9215 6.04652 29.9059 6.08888 29.8895 6.13254C29.698 6.64428 29.4127 7.34105 29.0381 8.07771C28.6646 8.81202 28.1943 9.6021 27.6284 10.2913C27.0662 10.976 26.3787 11.5992 25.5607 11.9446C24.4687 12.4056 23.2755 12.3189 22.1679 12.0016C21.0567 11.6834 19.9637 11.1143 19.015 10.5159C18.0621 9.91483 17.2292 9.26779 16.636 8.77296C16.3914 8.5689 16.1864 8.38976 16.0294 8.24906L16.0196 8.25384ZM2.11423 16.5074C1.79361 15.8469 2.06818 15.0511 2.72749 14.7299C3.3868 14.4087 4.18118 14.6837 4.5018 15.3443C4.82241 16.0048 4.54784 16.8006 3.88853 17.1218C3.22922 17.443 2.43484 17.168 2.11423 16.5074ZM16.5828 28.6862C15.8766 29.0302 15.0513 28.9387 14.4428 28.482L32.618 19.6274C32.6008 20.389 32.1629 21.0958 31.4568 21.4398L16.5828 28.6862ZM28.5258 3.64012C28.2052 2.97959 28.4797 2.18374 29.139 1.86254C29.7983 1.54133 30.5927 1.81641 30.9133 2.47694C31.234 3.13746 30.9594 3.93331 30.3001 4.25452C29.6408 4.57572 28.8464 4.30065 28.5258 3.64012Z" fill="url(#paint3_linear_0_1)"/>
<path d="M15.8007 8.34893C15.8743 8.3207 15.9474 8.28903 16.0196 8.25384L16.0294 8.24906C16.1864 8.38976 16.3914 8.5689 16.636 8.77296C17.2292 9.26779 18.0621 9.91483 19.015 10.5159C19.9637 11.1143 21.0567 11.6834 22.1679 12.0016C23.2755 12.3189 24.4687 12.4056 25.5607 11.9446C26.3787 11.5992 27.0662 10.976 27.6284 10.2913C28.1943 9.6021 28.6646 8.81202 29.0381 8.07771C29.4127 7.34105 29.698 6.64428 29.8895 6.13254C29.9059 6.08888 29.9215 6.04652 29.9365 6.00556L32.3844 18.2081L13.4741 27.4209L5.27941 17.7805L5.28317 17.7764C5.37154 17.8061 5.469 17.838 5.5746 17.8715C6.09466 18.0366 6.81787 18.242 7.62757 18.4017C8.43469 18.5609 9.34542 18.6781 10.236 18.6578C11.1207 18.6376 12.0346 18.4806 12.8108 18.0493C13.8471 17.4735 14.5158 16.4796 14.9507 15.4109C15.3869 14.3388 15.6151 13.1261 15.7311 12.0089C15.8476 10.8869 15.854 9.83092 15.8317 9.05797C15.8238 8.78406 15.8123 8.54457 15.8007 8.34893Z" fill="#FCFBFF"/>
<path d="M14.4428 28.482C15.0513 28.9387 15.8766 29.0302 16.5828 28.6862L31.4568 21.4398C32.1629 21.0958 32.6008 20.389 32.618 19.6274L14.4428 28.482Z" fill="#FCFBFF"/>
<path d="M2.72749 14.7299C2.06818 15.0511 1.79361 15.8469 2.11423 16.5074C2.43484 17.168 3.22922 17.443 3.88853 17.1218C4.54784 16.8006 4.82241 16.0048 4.5018 15.3443C4.18118 14.6837 3.3868 14.4087 2.72749 14.7299Z" fill="#FCFBFF"/>
<path d="M13.6435 6.39959C13.3229 5.73906 13.5974 4.94321 14.2567 4.62201C14.916 4.3008 15.7104 4.57588 16.031 5.2364C16.3517 5.89693 16.0771 6.69278 15.4178 7.01399C14.7585 7.33519 13.9641 7.06012 13.6435 6.39959Z" fill="#FCFBFF"/>
<path d="M29.139 1.86254C28.4797 2.18374 28.2052 2.97959 28.5258 3.64012C28.8464 4.30065 29.6408 4.57572 30.3001 4.25452C30.9594 3.93331 31.234 3.13746 30.9133 2.47694C30.5927 1.81641 29.7983 1.54133 29.139 1.86254Z" fill="#FCFBFF"/>
<defs>
<linearGradient id="paint0_linear_0_1" x1="77" y1="2.54205" x2="-10.8438" y2="8.54379" gradientUnits="userSpaceOnUse">
<stop stop-color="#8A6EDA"/>
<stop offset="0.381042" stop-color="#B76EDA"/>
<stop offset="0.741061" stop-color="#DB75E0"/>
<stop offset="1" stop-color="#EBB1EB"/>
</linearGradient>
<linearGradient id="paint1_linear_0_1" x1="77" y1="2.54205" x2="-10.8438" y2="8.54379" gradientUnits="userSpaceOnUse">
<stop stop-color="#8A6EDA"/>
<stop offset="0.381042" stop-color="#B76EDA"/>
<stop offset="0.741061" stop-color="#DB75E0"/>
<stop offset="1" stop-color="#EBB1EB"/>
</linearGradient>
<linearGradient id="paint2_linear_0_1" x1="77" y1="2.54205" x2="-10.8438" y2="8.54379" gradientUnits="userSpaceOnUse">
<stop stop-color="#8A6EDA"/>
<stop offset="0.381042" stop-color="#B76EDA"/>
<stop offset="0.741061" stop-color="#DB75E0"/>
<stop offset="1" stop-color="#EBB1EB"/>
</linearGradient>
<linearGradient id="paint3_linear_0_1" x1="35.8377" y1="22.5771" x2="-8.55287" y2="8.4686" gradientUnits="userSpaceOnUse">
<stop stop-color="#DE9927"/>
<stop offset="1" stop-color="#F5CC88"/>
</linearGradient>
</defs>
</svg>
